<svg width="119" height="30" viewBox="0 0 119 30" fill="none" xmlns="http://www.w3.org/2000/svg">
<path d="M2.83801 29.4108H28.488V3.76075H2.83801V29.4108ZM23.551 14.1178H18.131V8.69775H23.551V14.1178ZM7.774 8.69775H13.197V19.0538H23.551V24.4738H7.774V8.69775ZM45.191 3.76075C42.6544 3.76075 40.1748 4.51293 38.0658 5.92216C35.9567 7.33139 34.3129 9.33438 33.3422 11.6779C32.3715 14.0213 32.1176 16.6 32.6124 19.0878C33.1073 21.5756 34.3287 23.8608 36.1223 25.6544C37.9159 27.448 40.2011 28.6695 42.6889 29.1644C45.1768 29.6592 47.7554 29.4053 50.0989 28.4346C52.4424 27.4639 54.4453 25.82 55.8546 23.711C57.2638 21.6019 58.016 19.1222 58.016 16.5858C58.012 13.1856 56.6595 9.92579 54.2552 7.5215C51.8509 5.1172 48.5912 3.76472 45.191 3.76075ZM45.191 24.4738C43.6309 24.4738 42.1058 24.0112 40.8086 23.1444C39.5115 22.2777 38.5004 21.0457 37.9034 19.6044C37.3064 18.1631 37.1502 16.577 37.4545 15.0469C37.7589 13.5168 38.5102 12.1112 39.6133 11.0081C40.7165 9.90494 42.122 9.15368 43.6521 8.84932C45.1822 8.54496 46.7682 8.70117 48.2096 9.29819C49.6509 9.89521 50.8829 10.9062 51.7496 12.2034C52.6164 13.5005 53.079 15.0257 53.079 16.5858C53.0758 18.6768 52.2437 20.6814 50.7651 22.16C49.2865 23.6385 47.282 24.4706 45.191 24.4738ZM103.91 3.76075C101.373 3.76056 98.8937 4.51256 96.7845 5.92167C94.6753 7.33078 93.0314 9.3337 92.0605 11.6772C91.0897 14.0205 90.8355 16.5994 91.3303 19.0872C91.825 21.575 93.0464 23.8604 94.84 25.6541C96.6335 27.4478 98.9187 28.6694 101.407 29.1643C103.894 29.6592 106.473 29.4053 108.817 28.4347C111.16 27.464 113.163 25.8201 114.572 23.7111C115.982 21.602 116.734 19.1223 116.734 16.5858C116.73 13.1858 115.378 9.92611 112.974 7.52185C110.57 5.11758 107.31 3.76499 103.91 3.76075ZM103.91 24.4738C102.35 24.474 100.825 24.0114 99.5274 23.1448C98.2301 22.2783 97.2189 21.0464 96.6217 19.6051C96.0245 18.1638 95.8682 16.5777 96.1724 15.0475C96.4767 13.5174 97.2279 12.1117 98.331 11.0085C99.4341 9.90519 100.84 9.15383 102.37 8.84939C103.9 8.54495 105.486 8.7011 106.927 9.2981C108.369 9.89509 109.601 10.9061 110.468 12.2034C111.334 13.5005 111.797 15.0257 111.797 16.5858C111.794 18.6766 110.962 20.681 109.483 22.1595C108.005 23.6381 106.001 24.4704 103.91 24.4738ZM74.55 3.76075C72.0134 3.76075 69.5338 4.51293 67.4248 5.92216C65.3157 7.33139 63.6719 9.33438 62.7012 11.6779C61.7305 14.0213 61.4766 16.6 61.9714 19.0878C62.4663 21.5756 63.6877 23.8608 65.4813 25.6544C67.2749 27.448 69.5601 28.6695 72.0479 29.1644C74.5357 29.6592 77.1144 29.4053 79.4579 28.4346C81.8014 27.4639 83.8043 25.82 85.2136 23.711C86.6228 21.6019 87.375 19.1222 87.375 16.5858C87.371 13.1856 86.0185 9.92579 83.6142 7.5215C81.2099 5.1172 77.9502 3.76472 74.55 3.76075ZM74.55 24.4738C73.0964 24.4745 71.671 24.0736 70.4309 23.3153C69.1909 22.557 68.1844 21.4709 67.5227 20.1767C66.8611 18.8825 66.5698 17.4306 66.6812 15.9814C66.7926 14.5321 67.3022 13.1417 68.1539 11.9639C69.0056 10.786 70.1662 9.86636 71.5075 9.30646C72.8489 8.74655 74.3189 8.56817 75.7552 8.79099C77.1916 9.01382 78.5384 9.62918 79.6471 10.5692C80.7558 11.5092 81.5832 12.7373 82.038 14.1178H74.55V19.0538H82.038C81.5171 20.629 80.5135 22.0005 79.1694 22.9733C77.8254 23.9462 76.2092 24.4711 74.55 24.4738Z" fill="#B4B7C9"/>
</svg>
